# xmcd CD database file
#
# Track frame offsets:
#	150
#	18090
#	32177
#	51042
#	69612
#	86525
#	105185
#	126077
#	149355
#	170490
#	191087
#	200985
#	220387
#	229275
#	238220
#	263697
#	273212
#	291402
#	303697
#	310305
#
# Disc length: 4425 seconds
#
# Revision: 0
# Processed by: cddbd v1.5PL3 Copyright (c) Steve Scherf et al.
# Submitted via: CDex 1.50beta8
#
DISCID=32114714
DTITLE=ブルーなのすこやか音楽くらぶ - あたらしいこどものうた　Disc１
DYEAR=2002
DGENRE=Vocal
TTITLE0=歌の翼に
TTITLE1=「カヴァレリア・ルスティカーナ」間奏曲
TTITLE2=月の光
TTITLE3=G線上のアリア
TTITLE4=愛の喜び
TTITLE5=わかれの曲
TTITLE6=愛の夢　第３番
TTITLE7=ラルゴ（オンブラ・マイ・フ）
TTITLE8=シューベルトのアヴェ・マリア
TTITLE9=「マドンナの宝石」間奏曲
TTITLE10=亜麻色の髪のおとめ
TTITLE11=アイネ・クライネ・ナハト・ムジーク
TTITLE12=楽興の時　第３番
TTITLE13=美しいロスマリン
TTITLE14=ラ・カンパネラ
TTITLE15=平均律クラヴィーア曲集　第１巻　第１曲
TTITLE16=ノクターン　第２章
TTITLE17=「白鳥の湖」より情景
TTITLE18=ブラームスのワルツ
TTITLE19=主よ、人の望みの喜びよ
EXTD=YEAR: 2002.03.06
EXTT0=
EXTT1=
EXTT2=
EXTT3=
EXTT4=
EXTT5=
EXTT6=
EXTT7=
EXTT8=
EXTT9=
EXTT10=
EXTT11=
EXTT12=
EXTT13=
EXTT14=
EXTT15=
EXTT16=
EXTT17=
EXTT18=
EXTT19=
PLAYORDER=
